# xmcd
#
# Track frame offsets: 
#        183
#        114035
#        129535
#        135848
#        146140
#        170660
#        174250
#        175383
#        178933
#        183065
#        193110
#        199718
#        204398
#        210630
#        231633
#        247675
#        248980
#        252695
#        260583
#        273420
#        290580
#        300385
#        327805
#
# Disc length: 4503 seconds
#
# Revision: 6
# Processed by: cddbd v1.5.2PL0 Copyright (c) Steve Scherf et al.
# Submitted via: ExactAudioCopy v1.0b1
#
DISCID=58119517
DTITLE=Strauss - Metamorphosen and Alpensinfonie (Kempe, Staatskapelle D
DTITLE=resden)
DYEAR=1973
DGENRE=Orchesterwerk
TTITLE0=Metamorphosen - Studie für 23 Solostreicher
TTITLE1=Eine Alpensinfonie op. 64 - Nacht
TTITLE2=Eine Alpensinfonie op. 64 - Sonnenaufgang
TTITLE3=Eine Alpensinfonie op. 64 - Der Anstieg
TTITLE4=Eine Alpensinfonie op. 64 - Eintritt in den Wald
TTITLE5=Eine Alpensinfonie op. 64 - Wanderung neben dem Bache
TTITLE6=Eine Alpensinfonie op. 64 - Am Wasserfall
TTITLE7=Eine Alpensinfonie op. 64 - Erscheinung
TTITLE8=Eine Alpensinfonie op. 64 - Auf blumigen Wiesen
TTITLE9=Eine Alpensinfonie op. 64 - Auf der Alm
TTITLE10=Eine Alpensinfonie op. 64 - Durch Dickicht und Gestrüpp auf I
TTITLE10=rrwegen
TTITLE11=Eine Alpensinfonie op. 64 - Auf dem Gletscher
TTITLE12=Eine Alpensinfonie op. 64 - Gefahrvolle Augenblicke
TTITLE13=Eine Alpensinfonie op. 64 - Auf dem Gipfel
TTITLE14=Eine Alpensinfonie op. 64 - Vision
TTITLE15=Eine Alpensinfonie op. 64 - Nebel steigen auf
TTITLE16=Eine Alpensinfonie op. 64 - Die Sonne verdüstert sich allmähl
TTITLE16=ich
TTITLE17=Eine Alpensinfonie op. 64 - Elegie
TTITLE18=Eine Alpensinfonie op. 64 - Stille vor dem Sturm
TTITLE19=Eine Alpensinfonie op. 64 - Gewitter und Sturm - Abstieg
TTITLE20=Eine Alpensinfonie op. 64 - Sonnenuntergang
TTITLE21=Eine Alpensinfonie op. 64 - Ausklang
TTITLE22=Eine Alpensinfonie op. 64 - Nacht
EXTD=
EXTT0=
EXTT1=
EXTT2=
EXTT3=
EXTT4=
EXTT5=
EXTT6=
EXTT7=
EXTT8=
EXTT9=
EXTT10=
EXTT11=
EXTT12=
EXTT13=
EXTT14=
EXTT15=
EXTT16=
EXTT17=
EXTT18=
EXTT19=
EXTT20=
EXTT21=
EXTT22=
PLAYORDER=
